<mxfile host="app.diagrams.net" modified="2021-04-14T06:35:16.231Z" agent="5.0 (Windows NT 10.0; Win64; x64) AppleWebKit/537.36 (KHTML, like Gecko) Chrome/89.0.4389.90 Safari/537.36" etag="dJVVXifsZt-CNtpbb4rl" version="14.6.0" type="github">
  <diagram id="Sl6yuxid9HXGO5JaFFLM" name="第 1 页">
    <mxGraphModel dx="1422" dy="762" grid="1" gridSize="10" guides="1" tooltips="1" connect="1" arrows="1" fold="1" page="1" pageScale="1" pageWidth="827" pageHeight="1169" math="0" shadow="0">
      <root>
        <mxCell id="0" />
        <mxCell id="1" parent="0" />
        <mxCell id="NgQiXCGvYjA0ieij1ncG-5" style="edgeStyle=orthogonalEdgeStyle;rounded=0;orthogonalLoop=1;jettySize=auto;html=1;exitX=1;exitY=0.5;exitDx=0;exitDy=0;entryX=0;entryY=0.5;entryDx=0;entryDy=0;" edge="1" parent="1" source="NgQiXCGvYjA0ieij1ncG-2">
          <mxGeometry relative="1" as="geometry">
            <mxPoint x="260" y="130" as="targetPoint" />
          </mxGeometry>
        </mxCell>
        <mxCell id="NgQiXCGvYjA0ieij1ncG-12" style="edgeStyle=orthogonalEdgeStyle;rounded=0;orthogonalLoop=1;jettySize=auto;html=1;entryX=0.5;entryY=0;entryDx=0;entryDy=0;dashed=1;" edge="1" parent="1" source="NgQiXCGvYjA0ieij1ncG-2" target="NgQiXCGvYjA0ieij1ncG-8">
          <mxGeometry relative="1" as="geometry" />
        </mxCell>
        <mxCell id="NgQiXCGvYjA0ieij1ncG-2" value="异常中断上报" style="rounded=1;whiteSpace=wrap;html=1;fillColor=#f5f5f5;strokeColor=#666666;fontColor=#333333;" vertex="1" parent="1">
          <mxGeometry x="40" y="100" width="120" height="60" as="geometry" />
        </mxCell>
        <mxCell id="NgQiXCGvYjA0ieij1ncG-19" style="edgeStyle=orthogonalEdgeStyle;rounded=0;orthogonalLoop=1;jettySize=auto;html=1;exitX=1;exitY=0.5;exitDx=0;exitDy=0;entryX=0;entryY=0.5;entryDx=0;entryDy=0;" edge="1" parent="1" source="NgQiXCGvYjA0ieij1ncG-4" target="NgQiXCGvYjA0ieij1ncG-7">
          <mxGeometry relative="1" as="geometry" />
        </mxCell>
        <mxCell id="NgQiXCGvYjA0ieij1ncG-4" value="创建流转单" style="rounded=1;whiteSpace=wrap;html=1;" vertex="1" parent="1">
          <mxGeometry x="260" y="100" width="120" height="60" as="geometry" />
        </mxCell>
        <mxCell id="NgQiXCGvYjA0ieij1ncG-23" style="edgeStyle=orthogonalEdgeStyle;rounded=0;orthogonalLoop=1;jettySize=auto;html=1;exitX=1;exitY=0.5;exitDx=0;exitDy=0;entryX=0;entryY=0.5;entryDx=0;entryDy=0;" edge="1" parent="1" source="NgQiXCGvYjA0ieij1ncG-7" target="NgQiXCGvYjA0ieij1ncG-22">
          <mxGeometry relative="1" as="geometry" />
        </mxCell>
        <mxCell id="NgQiXCGvYjA0ieij1ncG-7" value="接收流转单" style="rounded=1;whiteSpace=wrap;html=1;" vertex="1" parent="1">
          <mxGeometry x="487" y="100" width="120" height="60" as="geometry" />
        </mxCell>
        <mxCell id="NgQiXCGvYjA0ieij1ncG-33" style="edgeStyle=orthogonalEdgeStyle;rounded=0;orthogonalLoop=1;jettySize=auto;html=1;exitX=0.5;exitY=1;exitDx=0;exitDy=0;entryX=0.5;entryY=0;entryDx=0;entryDy=0;dashed=1;" edge="1" parent="1" source="NgQiXCGvYjA0ieij1ncG-8" target="NgQiXCGvYjA0ieij1ncG-13">
          <mxGeometry relative="1" as="geometry" />
        </mxCell>
        <mxCell id="NgQiXCGvYjA0ieij1ncG-8" value="发质检中断消息" style="verticalLabelPosition=bottom;verticalAlign=top;html=1;shape=process;whiteSpace=wrap;rounded=1;size=0.14;arcSize=6;" vertex="1" parent="1">
          <mxGeometry x="50" y="280" width="100" height="60" as="geometry" />
        </mxCell>
        <mxCell id="NgQiXCGvYjA0ieij1ncG-34" style="edgeStyle=orthogonalEdgeStyle;rounded=0;orthogonalLoop=1;jettySize=auto;html=1;exitX=0.5;exitY=1;exitDx=0;exitDy=0;entryX=0.5;entryY=0;entryDx=0;entryDy=0;dashed=1;" edge="1" parent="1" source="NgQiXCGvYjA0ieij1ncG-13" target="NgQiXCGvYjA0ieij1ncG-20">
          <mxGeometry relative="1" as="geometry" />
        </mxCell>
        <mxCell id="NgQiXCGvYjA0ieij1ncG-13" value="OMS调同步密码恢复接口" style="verticalLabelPosition=bottom;verticalAlign=top;html=1;shape=process;whiteSpace=wrap;rounded=1;size=0.14;arcSize=6;" vertex="1" parent="1">
          <mxGeometry x="50" y="460" width="100" height="60" as="geometry" />
        </mxCell>
        <mxCell id="NgQiXCGvYjA0ieij1ncG-20" value="恢复密码" style="rounded=1;whiteSpace=wrap;html=1;" vertex="1" parent="1">
          <mxGeometry x="40" y="630" width="120" height="60" as="geometry" />
        </mxCell>
        <mxCell id="NgQiXCGvYjA0ieij1ncG-25" style="edgeStyle=orthogonalEdgeStyle;rounded=0;orthogonalLoop=1;jettySize=auto;html=1;exitX=0.5;exitY=1;exitDx=0;exitDy=0;" edge="1" parent="1" source="NgQiXCGvYjA0ieij1ncG-22" target="NgQiXCGvYjA0ieij1ncG-24">
          <mxGeometry relative="1" as="geometry" />
        </mxCell>
        <mxCell id="NgQiXCGvYjA0ieij1ncG-22" value="密码恢复和核对【状态已恢复】" style="rounded=1;whiteSpace=wrap;html=1;" vertex="1" parent="1">
          <mxGeometry x="720" y="100" width="120" height="60" as="geometry" />
        </mxCell>
        <mxCell id="NgQiXCGvYjA0ieij1ncG-27" style="edgeStyle=orthogonalEdgeStyle;rounded=0;orthogonalLoop=1;jettySize=auto;html=1;exitX=0.5;exitY=1;exitDx=0;exitDy=0;" edge="1" parent="1" source="NgQiXCGvYjA0ieij1ncG-24">
          <mxGeometry relative="1" as="geometry">
            <mxPoint x="780" y="460" as="targetPoint" />
          </mxGeometry>
        </mxCell>
        <mxCell id="NgQiXCGvYjA0ieij1ncG-28" value="否" style="edgeLabel;html=1;align=center;verticalAlign=middle;resizable=0;points=[];" vertex="1" connectable="0" parent="NgQiXCGvYjA0ieij1ncG-27">
          <mxGeometry x="-0.2" y="1" relative="1" as="geometry">
            <mxPoint as="offset" />
          </mxGeometry>
        </mxCell>
        <mxCell id="NgQiXCGvYjA0ieij1ncG-36" value="是" style="edgeStyle=orthogonalEdgeStyle;rounded=0;orthogonalLoop=1;jettySize=auto;html=1;exitX=0;exitY=0.5;exitDx=0;exitDy=0;entryX=1;entryY=0.5;entryDx=0;entryDy=0;" edge="1" parent="1" source="NgQiXCGvYjA0ieij1ncG-24" target="NgQiXCGvYjA0ieij1ncG-35">
          <mxGeometry relative="1" as="geometry">
            <Array as="points">
              <mxPoint x="690" y="310" />
              <mxPoint x="690" y="310" />
            </Array>
          </mxGeometry>
        </mxCell>
        <mxCell id="NgQiXCGvYjA0ieij1ncG-24" value="无密恢复" style="rhombus;whiteSpace=wrap;html=1;" vertex="1" parent="1">
          <mxGeometry x="740" y="270" width="80" height="80" as="geometry" />
        </mxCell>
        <mxCell id="NgQiXCGvYjA0ieij1ncG-32" style="edgeStyle=orthogonalEdgeStyle;rounded=0;orthogonalLoop=1;jettySize=auto;html=1;exitX=0.5;exitY=1;exitDx=0;exitDy=0;entryX=0.5;entryY=0;entryDx=0;entryDy=0;" edge="1" parent="1" source="NgQiXCGvYjA0ieij1ncG-29" target="NgQiXCGvYjA0ieij1ncG-30">
          <mxGeometry relative="1" as="geometry" />
        </mxCell>
        <mxCell id="NgQiXCGvYjA0ieij1ncG-29" value="创建流转单流转到上报环节【状态已流转】" style="rounded=1;whiteSpace=wrap;html=1;" vertex="1" parent="1">
          <mxGeometry x="720" y="460" width="120" height="60" as="geometry" />
        </mxCell>
        <mxCell id="NgQiXCGvYjA0ieij1ncG-30" value="结束" style="rounded=1;whiteSpace=wrap;html=1;fillColor=#f8cecc;strokeColor=#b85450;" vertex="1" parent="1">
          <mxGeometry x="720" y="630" width="120" height="60" as="geometry" />
        </mxCell>
        <mxCell id="NgQiXCGvYjA0ieij1ncG-40" style="edgeStyle=orthogonalEdgeStyle;rounded=0;orthogonalLoop=1;jettySize=auto;html=1;exitX=0.5;exitY=1;exitDx=0;exitDy=0;entryX=0;entryY=0.5;entryDx=0;entryDy=0;" edge="1" parent="1" source="NgQiXCGvYjA0ieij1ncG-35" target="NgQiXCGvYjA0ieij1ncG-30">
          <mxGeometry relative="1" as="geometry" />
        </mxCell>
        <mxCell id="NgQiXCGvYjA0ieij1ncG-35" value="修改质检为质检流程异常【状态已流转】" style="rounded=1;whiteSpace=wrap;html=1;" vertex="1" parent="1">
          <mxGeometry x="500" y="280" width="120" height="60" as="geometry" />
        </mxCell>
      </root>
    </mxGraphModel>
  </diagram>
</mxfile>
